<?xml version="1.0" encoding="utf-8"?>
<!-- Generator: Adobe Illustrator 16.0.0, SVG Export Plug-In . SVG Version: 6.00 Build 0)  -->
<!DOCTYPE svg PUBLIC "-//W3C//DTD SVG 1.1//EN" "http://www.w3.org/Graphics/SVG/1.1/DTD/svg11.dtd">
<svg version="1.1" xmlns="http://www.w3.org/2000/svg" xmlns:xlink="http://www.w3.org/1999/xlink" x="0px" y="0px" width="1024px"
	 height="1024px" viewBox="0 0 1024 1024" enable-background="new 0 0 1024 1024" xml:space="preserve">
<g id="input">
	<polygon opacity="0.15" fill="#F4F4F4" points="439.64,351 429,332.5 439.64,314 712.36,314 723,332.5 712.36,351 	"/>
	<polygon fill="#FFFFFF" stroke="#000000" stroke-width="2" stroke-miterlimit="10" points="433,332.5 441.95,317 710.05,317 
		719,332.5 710.05,348 441.95,348 	"/>
	<polygon fill="#FFFFFF" points="433,332.5 441.95,317 710.05,317 719,332.5 710.05,348 441.95,348 	"/>
	<polygon opacity="0.4" points="441.95,348 433,332.5 441.95,317 710.05,317 719,332.5 710.05,348 	"/>
	<polygon opacity="0.6" fill="#FFFFFF" points="442.38,347 434,332.5 442.38,318 709.62,318 718,332.5 709.62,347 	"/>
	<polygon fill="#FFFFFF" points="442.81,346 435,332.5 442.81,319 709.19,319 717,332.5 709.19,346 	"/>
</g>
<g id="select-arrow">
	<linearGradient id="SVGID_1_" gradientUnits="userSpaceOnUse" x1="260.1611" y1="375.2109" x2="283.8381" y2="391.7898">
		<stop  offset="0" style="stop-color:#D9D9D9"/>
		<stop  offset="0.6" style="stop-color:#FFFFFF"/>
	</linearGradient>
	<polygon fill="url(#SVGID_1_)" points="263.81,397 256,383.5 263.81,370 280.19,370 288,383.5 280.19,397 	"/>
	<path id="_x3C_Path_x3E_" fill-rule="evenodd" clip-rule="evenodd" d="M277,382.84l-3.21,3.27l0.03,0.04l-1.81,1.84l-0.04-0.04
		l-0.01,0.01l-1.81-1.85l0.01,0l-3.18-3.24l1.81-1.85l3.18,3.24l3.21-3.27L277,382.84z"/>
</g>
<g id="checkbox">
	<path opacity="0.15" fill="#FFFFFF" d="M459.16,386h-20.33L429,369.5l9.84-16.5h20.33l9.84,16.5L459.16,386z M439.96,384h18.08
		l8.64-14.5l-8.64-14.5h-18.08l-8.64,14.5L439.96,384z"/>
	<polygon opacity="0.1" fill="#FFFFFF" points="440.81,383 433,369.5 440.81,356 457.19,356 465,369.5 457.19,383 	"/>
</g>
<g id="checkbox-checked">
	<path opacity="0.15" fill="#FFFFFF" d="M500.16,386h-20.33L470,369.5l9.84-16.5h20.33l9.84,16.5L500.16,386z M480.96,384h18.08
		l8.64-14.5l-8.64-14.5h-18.08l-8.64,14.5L480.96,384z"/>
	<polygon fill="#8DC72D" points="481.81,383 474,369.5 481.81,356 498.19,356 506,369.5 498.19,383 	"/>
	<polygon fill-rule="evenodd" clip-rule="evenodd" fill="#FFFFFF" points="496,365.79 494.28,364 488.12,370.38 485.72,367.85 
		484,369.64 486.4,372.16 486.38,372.18 488.1,373.97 488.11,373.96 488.14,374 489.87,372.21 489.84,372.18 	"/>
	<radialGradient id="SVGID_2_" cx="488.7822" cy="357.8242" r="21.7337" gradientUnits="userSpaceOnUse">
		<stop  offset="0" style="stop-color:#FFFFFF;stop-opacity:0.4"/>
		<stop  offset="1" style="stop-color:#FFFFFF;stop-opacity:0"/>
	</radialGradient>
	<polygon fill="url(#SVGID_2_)" points="481.81,383 474,369.5 481.81,356 498.19,356 	"/>
</g>
<g id="largedot">
	<radialGradient id="SVGID_3_" cx="382" cy="185" r="306.0804" gradientUnits="userSpaceOnUse">
		<stop  offset="0.2" style="stop-color:#1B1C1F"/>
		<stop  offset="0.54" style="stop-color:#141414"/>
		<stop  offset="1" style="stop-color:#0C0D0D"/>
	</radialGradient>
	<polygon display="none" fill="url(#SVGID_3_)" points="104,370 0,185 104,0 324,0 428,185 324,370 	"/>
	<g>
		<defs>
			<path id="SVGID_4_" d="M324,0H104L0,185l104,185h220l104-185L324,0z M292.38,315H135.62L62,184l73.62-131h156.77L366,184
				L292.38,315z"/>
		</defs>
		<clipPath id="SVGID_5_">
			<use xlink:href="#SVGID_4_"  overflow="visible"/>
		</clipPath>
		<radialGradient id="SVGID_6_" cx="382" cy="184" r="306.0804" gradientUnits="userSpaceOnUse">
			<stop  offset="0.2" style="stop-color:#1B1C1F"/>
			<stop  offset="0.54" style="stop-color:#141414"/>
			<stop  offset="1" style="stop-color:#0C0D0D"/>
		</radialGradient>
		<polygon clip-path="url(#SVGID_5_)" fill="url(#SVGID_6_)" points="104,369 0,184 104,-1 324,-1 428,184 324,369 		"/>
	</g>
	<polygon id="inside" display="none" fill="none" points="292.38,262 135.62,262 62,131 135.62,0 292.38,0 366,131 	"/>
</g>
<g id="largedot-shine">
	<radialGradient id="SVGID_7_" cx="627" cy="25" r="297.0148" gradientUnits="userSpaceOnUse">
		<stop  offset="0" style="stop-color:#FFFFFF;stop-opacity:0.4"/>
		<stop  offset="1" style="stop-color:#FFFFFF;stop-opacity:0"/>
	</radialGradient>
	<polygon fill="url(#SVGID_7_)" points="533,370 429,185 533,0 753,0 	"/>
</g>
<g id="threedots">
	<polygon fill="#8DC72D" points="314,380 311,375 314,370 319,370 322,375 319,380 	"/>
	<polygon fill="#8DC72D" points="304,385 301,380 304,375 309,375 312,380 309,385 	"/>
	<polygon fill="#8DC72D" points="324,385 321,380 324,375 329,375 332,380 329,385 	"/>
</g>
<g id="twodots">
	<polygon fill="#8DC72D" points="292,380 289,375 292,370 297,370 300,375 297,380 	"/>
	<polygon fill="#8DC72D" points="292,391 289,386 292,381 297,381 300,386 297,391 	"/>
</g>
<g id="quote">
	<polygon fill="#8DC72D" points="728,314 724,322 724,352 742,322 737,314 	"/>
</g>
<g id="cartsummary">
	<radialGradient id="SVGID_8_" cx="81.2749" cy="385.2329" r="144.5825" gradientUnits="userSpaceOnUse">
		<stop  offset="0.2" style="stop-color:#1B1C1F"/>
		<stop  offset="0.54" style="stop-color:#141414"/>
		<stop  offset="1" style="stop-color:#0C0D0D"/>
	</radialGradient>
	<polygon fill="url(#SVGID_8_)" points="17.95,401 0,370 255,370 237.05,401 	"/>
	<polygon fill="#8DC72D" points="18.91,397 12,385 18.91,373 153.08,373 160,385 153.08,397 	"/>
	
		<radialGradient id="SVGID_9_" cx="110.7168" cy="374.813" r="26.1764" gradientTransform="matrix(1.0157 0 0 0.9985 -8.1772 0.3706)" gradientUnits="userSpaceOnUse">
		<stop  offset="0" style="stop-color:#FFFFFF;stop-opacity:0.5"/>
		<stop  offset="1" style="stop-color:#FFFFFF;stop-opacity:0"/>
	</radialGradient>
	<polygon fill="url(#SVGID_9_)" points="73.87,397 67,385 73.87,373 128,373 113.48,397 	"/>
	<linearGradient id="SVGID_10_" gradientUnits="userSpaceOnUse" x1="19" y1="400.5" x2="153" y2="400.5">
		<stop  offset="0" style="stop-color:#8DC72D;stop-opacity:0"/>
		<stop  offset="0.25" style="stop-color:#8DC72D"/>
		<stop  offset="0.75" style="stop-color:#8DC72D"/>
		<stop  offset="1" style="stop-color:#8DC72D;stop-opacity:0"/>
	</linearGradient>
	<rect x="19" y="400" opacity="0.3" fill="url(#SVGID_10_)" width="134" height="1"/>
</g>
</svg>
