<?xml version="1.0" encoding="utf-8"?>
<!DOCTYPE svg PUBLIC "-//W3C//DTD SVG 1.1//EN" "http://www.w3.org/Graphics/SVG/1.1/DTD/svg11.dtd">
<svg xmlns="http://www.w3.org/2000/svg" xmlns:xlink="http://www.w3.org/1999/xlink" width="100%" height="100%" viewBox="0 0 428 370" preserveAspectRatio="xMidYMin">
	<defs>
		<style type="text/css"><![CDATA[
			.dimmable {
				opacity: 1;
				-webkit-transition: opacity 500ms ease-out;
				-moz-transition: opacity 500ms ease-out;
				-ms-transition: opacity 500ms ease-out;
				-o-transition: opacity 500ms ease-out;
				transition: opacity 500ms ease-out;
			}
			
			.dimmed {
				opacity: 0.2;
			}
		]]></style>
	</defs>
	<radialGradient id="bg_gradient" cx="382" cy="185" r="306" gradientUnits="userSpaceOnUse">
		<stop offset="0.2" style="stop-color:#1B1C1F" />
		<stop offset="0.54" style="stop-color:#141414" />
		<stop offset="1" style="stop-color:#0C0D0D" />
	</radialGradient>
	<polygon fill="url(#bg_gradient)" points="104,370 0,185 104,0 324,0 428,185 324,370" />
	<g>
		<defs>
			<path id="bg" d="M324,0H104L0,184l104,186h220l104-187L324,0z M292.38,315H135.62L62,184l73.62-131h156.77L366,184 L292.38,315z" />
		</defs>
		<clipPath id="bg_clip">
			<use xlink:href="#bg" overflow="visible" />
		</clipPath>
		<radialGradient id="stroke_gradient" cx="382" cy="185" r="306.0804" gradientUnits="userSpaceOnUse">
			<stop offset="0.2" style="stop-color:#1B1C1F" />
			<stop offset="0.54" style="stop-color:#141414" />
			<stop offset="1" style="stop-color:#0C0D0D" />
		</radialGradient>
		<polygon clip-path="url(#bg_clip)" fill="url(#stroke_gradient)" points="104,370 0,184 104,0 324,0 428,183 324,370" />
	</g>
	<g>
		<defs>
			<polygon id="inside" points="292.38,315 135.62,315 62,184 135.62,53 292.38,53 366,184"/>
		</defs>
		<clipPath id="inside_clip">
			<use xlink:href="#inside"  overflow="visible"/>
		</clipPath>
		<g id="cover_clip" clip-path="url(#inside_clip)">
			<image class="dimmable" id="cover" overflow="visible" width="428" height="370" transform="scale(0.85 0.85) translate(39 33)" />
		</g>
	</g>
	<radialGradient id="shine-gradient" cx="198" cy="25" r="361" gradientUnits="userSpaceOnUse">
		<stop offset="0" style="stop-color:#FFFFFF;stop-opacity:0.4" />
		<stop offset="0.8" style="stop-color:#FFFFFF;stop-opacity:0.02" />
		<stop offset="1" style="stop-color:#FFFFFF;stop-opacity:0.02" />
	</radialGradient>
	<polygon class="dimmable" id="shine" fill="url(#shine-gradient)" points="104,370 0,184 104,0 324,0" />
</svg>