<?xml version="1.0" encoding="utf-8"?>
<!DOCTYPE svg PUBLIC "-//W3C//DTD SVG 1.1//EN" "http://www.w3.org/Graphics/SVG/1.1/DTD/svg11.dtd">
<svg id="wrclogo" xmlns="http://www.w3.org/2000/svg" xmlns:xlink="http://www.w3.org/1999/xlink" width="100%" height="100%" viewBox="0 0 398 160" xml:space="preserve">
	<g shape-rendering="geometricPrecision" fill="#FFFFFF">
		<path d="M64.36,114h-14.3c-0.75,0-2.06-0.11-2.06,0.53V116h17.74l0.01-0.87C65.75,114.5,65.14,114,64.36,114z"/>
		<path d="M138.98,114h-14.3c-0.44,0-1.69-0.37-1.69,0.52v6.1c0,0.26,0.5,1.38,1.69,1.38h14.3c0.56,0,1.02-0.68,1.02-1.38v-6.1C140,113.88,139.73,114,138.98,114z"/>
		<path d="M387.73,96H10.27C4.59,96,0,100.46,0,105.95v22.09c0,5.49,4.59,9.95,10.27,9.95h377.47c5.67,0,10.27-4.46,10.27-9.95v-22.09C398,100.46,393.41,96,387.73,96z M31.83,113H17.96c-0.75,0-0.96,0.84-0.96,1.52V116h8.86c1.11,0,2.02,0.41,2.02,1.5c0,1.09-0.91,1.5-2.02,1.5H17v4.85c0,1.09-0.89,1.98-2,1.98c-1.11,0-2-0.89-2-1.98v-9.41c0-2.83,2.2-5.13,5.19-5.13l13.75,0.01c1.12,0,1.97,0.75,1.97,1.84C33.92,112.25,32.95,113,31.83,113z M38.63,125.93c-1.12,0-2.03-0.89-2.03-1.98l-0.01-12.58c0-1.09,0.91-1.99,2.02-1.99c1.12,0,2.03,0.89,2.03,1.99l0.01,12.58C40.65,125.04,39.74,125.93,38.63,125.93z M69,123.85c0,1.09-0.9,1.98-2,1.98c-1.1,0-2-0.89-2-1.99V120H48v3.85c0,1.09-0.9,1.98-2,1.98c-1.1,0-2-0.89-2-1.98v-9.41c0-2.77,2.94-4.44,6.06-4.44h14.3c2.98,0,4.64,1.58,4.64,4.44V123.85zM115,120.71c0,2.83-2.04,5.29-5.03,5.29h-2.77c-3,0-5.2-2.47-5.2-5.29v-3.29c0-0.7-0.76-1.25-1.5-1.25c-0.77,0-1.5,0.53-1.5,1.25v3.29c0,2.83-2.33,5.29-5.33,5.29h-2.79c-3,0-5.88-2.47-5.88-5.29v-9.41c0-1.1,0.88-1.99,2-1.99c1.12,0,2,0.89,2,1.99v9.33c0,0.69,1.11,1.38,1.88,1.38h2.77c0.78,0,1.36-0.69,1.36-1.38v-3.21c0-2.88,2.48-5.13,5.5-5.13c2.97,0,5.5,2.3,5.5,5.13v3.21c0,0.69,0.45,1.38,1.23,1.38h2.74c0.75,0,1.03-0.7,1.03-1.38v-9.33c0-1.1,0.89-1.99,2-1.99c1.11,0,2,0.89,2,1.99V120.71zM144,120.71c0,2.73-1.87,5.29-5.02,5.29h-14.3c-3.01,0-5.69-2.52-5.69-5.29v-6.26c0-2.87,2.68-4.45,5.69-4.45h14.3c3.09,0,5.02,1.67,5.02,4.45V120.71z M158.93,122h12.46c1.11,0,2.02,0.91,2.02,2.01c0,1.09-0.91,1.99-2.02,1.99h-12.46c-2.99,0-5.43-2.17-5.43-5.02c0-2.83,2.43-4.98,5.43-4.98h9.04c0.79,0,1.39-0.83,1.39-1.43c0-0.71-0.57-1.57-1.39-1.57H153.7c-0.75,0-1.7,0.84-1.7,1.52v9.34c0,1.09-0.88,1.97-2,1.97c-1.12,0-2-0.89-2-1.97v-9.41c0-2.83,2.7-5.45,5.7-5.45h14.27c3.05,0,5.44,2.18,5.44,5.08c0,2.76-2.44,4.92-5.44,4.92h-9.04c-0.8,0-1.38,0.79-1.38,1.48C157.55,121.2,158.28,122,158.93,122zM200.1,126h-17.76c-2.97,0-5.34-2.48-5.34-5.33v-9.38c0-1.1,0.88-1.99,2-1.99c1.11,0,2,0.89,2,1.99v9.3c0,0.67,0.64,1.4,1.34,1.4h17.76c1.11,0,2.02,0.91,2.02,2.01C202.12,125.09,201.22,126,200.1,126z M230,120.71c0,2.83-2.32,5.29-5.31,5.29h-17.71c-1.12,0-2.03-0.91-2.03-1.99c0-1.09,0.91-2.01,2.03-2.01h17.71c0.72,0,1.31-0.7,1.31-1.33v-6.13c0-0.7-0.55-1.54-1.31-1.54h-14.3c-0.77,0-1.38,0.83-1.38,1.52v4.35c0,1.09-0.88,1.98-1.99,1.98c-1.12,0-2.01-0.89-2.01-1.98v-4.43c0-2.83,2.39-5.45,5.38-5.45h14.3c2.99,0,5.31,2.65,5.31,5.52V120.71z M256.26,122h12.45c1.12,0,2.03,0.91,2.03,2c0,1.09-0.91,2-2.03,2h-12.45c-3,0-5.44-2.17-5.44-5.02c0-2.83,2.44-4.98,5.44-4.98h9.04c0.79,0,1.39-0.83,1.39-1.42c0-0.71-0.57-1.58-1.39-1.58h-14.27c-0.75,0-1.02,0.83-1.02,1.51v9.33c0,1.09-0.88,1.98-2,1.98c-1.11,0-2-0.89-2-1.98v-9.41c0-2.83,2.03-5.43,5.02-5.43h14.27c3.05,0,5.44,2.18,5.44,5.08c0,2.76-2.44,4.92-5.44,4.92h-9.04c-0.8,0-1.39,0.8-1.39,1.48C254.87,121.2,255.6,122,256.26,122zM300,123.85c0,1.09-0.9,1.98-2,1.98c-1.1,0-2-0.89-2-1.99V120h-17v3.85c0,1.19-1.5,1.98-2.5,1.98c-1,0-2.5-0.79-2.5-1.98v-9.41c0-2.96,3.55-4.44,6.39-4.44h14.3c2.81,0,5.31,1.48,5.31,4.44V123.85z M327.53,126h-17.76c-2.96,0-5.76-2.49-5.76-5.34v-9.38c0-1.09,0.88-1.99,2-1.99c1.12,0,2,0.89,2,1.99v9.3c0,0.67,1.07,1.42,1.76,1.42h17.76c1.12,0,2.03,0.91,2.03,2C329.55,125.09,328.64,126,327.53,126z M355.09,126h-17.76c-2.97,0-5.33-2.49-5.33-5.34v-9.38c0-1.09,0.89-1.99,2-1.99c1.11,0,2,0.89,2,1.99v9.3c0,0.67,0.63,1.42,1.33,1.42h17.76c1.12,0,2.03,0.91,2.03,2C357.12,125.09,356.21,126,355.09,126zM385,120.63c0,2.86-1.97,5.37-4.97,5.37h-17.68c-1.12,0-2.03-0.91-2.03-2c0-1.09,0.91-2,2.03-2h17.66c0.79,0,0.99-0.69,0.99-1.39v-0.47l-15.62,0c-3,0-5.38-2.3-5.38-5.13v-3.73c0-1.09,0.88-1.99,2-1.99c1.12,0,2,0.89,2,1.99v3.64c0,0.71,0.95,1.08,1.74,1.08H381v-4.72c0-1.09,0.89-1.99,2-1.99c1.11,0,2,0.89,2,1.99V120.63z"/>
		<path d="M294.69,114h-14.3c-0.57,0-1.39-0.33-1.39,0.53V116h17.07l0-0.87C296.08,114.5,295.47,114,294.69,114z"/>
		<path d="M348.95,159.99c-0.77,0-1.33-0.56-1.33-1.26v-9.47c0-0.7,0.56-1.26,1.33-1.26c0.78,0,1.33,0.56,1.33,1.26v9.47C350.29,159.43,349.73,159.99,348.95,159.99z"/>
		<path d="M330.62,159.99c-0.72,0-1.33-0.56-1.33-1.26v-3.31l-13.5-0.15l-0.22,3.45c0,0.7-0.6,1.26-1.33,1.26s-1.33-0.56-1.33-1.26v-9.47c0-0.7,0.6-1.26,1.33-1.26s1.33,0.56,1.33,1.26v3.33l13.5,0.17l0.21-3.5c0-0.7,0.61-1.26,1.33-1.26c0.73,0,1.33,0.56,1.33,1.26v9.47C331.95,159.43,331.35,159.99,330.62,159.99z"/>
		<path d="M295.91,150.52h-13.73c-0.84,0-1.31,0.48-1.31,1.12c0,0.62,0.47,1.12,1.31,1.12h11.07c2.19,0,3.97,1.59,3.97,3.62c0,2.05-1.76,3.62-3.97,3.62h-13.73c-0.73,0-1.34-0.56-1.34-1.26c0-0.71,0.61-1.26,1.34-1.26h13.73c0.77,0,1.31-0.46,1.31-1.1c0-0.64-0.56-1.1-1.31-1.1h-11.07c-2.19,0-3.98-1.57-3.98-3.64c0-2.05,1.78-3.64,3.98-3.64h13.73c0.73,0,1.33,0.56,1.33,1.26C297.24,149.97,296.64,150.52,295.91,150.52z"/>
		<path d="M258.53,159.99h-2.92c-2.21,0-3.93-1.62-3.93-3.64v-4.65c0-0.65-0.58-1.19-1.33-1.19h-2.92c-0.73,0-1.31,0.54-1.31,1.19v7.03c0,0.7-0.6,1.26-1.33,1.26c-0.73,0-1.33-0.56-1.33-1.26v-7.09c0-2,1.81-3.64,3.97-3.64h2.94c2.17,0,3.97,1.64,3.97,3.64v4.65c0,0.67,0.54,1.18,1.27,1.18h2.92c0.73,0,1.31-0.54,1.31-1.18v-7.03c0-0.7,0.61-1.26,1.33-1.26c0.73,0,1.33,0.56,1.33,1.26v7.09C262.51,158.36,260.7,159.99,258.53,159.99z"/>
		<path d="M223.83,148h-11.1c-2.17,0-3.73,1.64-3.73,3.64v4.71c0,2,1.56,3.65,3.73,3.65h11.1c2.16,0,4.17-1.64,4.17-3.65v-4.71C228,149.64,225.99,148,223.83,148z M225,156.29c0,0.64-0.44,0.71-1.17,0.71h-11.1c-0.73,0-1.73-0.06-1.73-0.71v-4.59c0-0.65,1-1.71,1.73-1.71h11.1c0.73,0,1.17,1.06,1.17,1.71V156.29z"/>
		<path d="M191.75,159.99c-0.78,0-1.33-0.56-1.33-1.26v-9.47c0-0.7,0.56-1.26,1.33-1.26s1.33,0.56,1.33,1.26v9.47C193.08,159.43,192.53,159.99,191.75,159.99z"/>
		<path d="M170.78,155.28h-9.21c-0.73,0-1.33-0.56-1.33-1.26c0-0.71,0.6-1.26,1.33-1.26h9.21c0.79,0,1.3-0.5,1.3-1.12c0-0.56-0.54-1.12-1.3-1.12h-11.1c-0.75,0-1.3,0.54-1.3,1.19v7.03c0,0.7-0.6,1.26-1.33,1.26s-1.33-0.56-1.33-1.26v-7.09c0-2,1.78-3.64,3.96-3.64h11.1c2.17,0,3.97,1.59,3.97,3.64C174.75,153.69,172.99,155.28,170.78,155.28z"/>
		<path d="M138.71,159.99c-0.73,0-1.35-0.56-1.35-1.26v-7.03c0-0.65-0.58-1.19-1.31-1.19h-2.14c-0.75,0-1.35,0.54-1.35,1.19v2.42c0,2-1.76,3.64-3.95,3.64c-2.23,0-3.95-1.61-3.95-3.64v-2.42c0-0.65-0.6-1.19-1.35-1.19h-2.17c-0.75,0-1.31,0.54-1.31,1.19v7.03c0,0.7-0.62,1.26-1.35,1.26c-0.73,0-1.33-0.56-1.33-1.26v-7.09c0-2,1.78-3.64,4-3.64h2.19c2.19,0,3.99,1.64,3.99,3.64v2.48c0,0.67,0.56,1.18,1.29,1.18c0.73,0,1.29-0.52,1.29-1.18v-2.48c0-2,1.78-3.64,3.99-3.64h2.17c2.19,0,4,1.64,4,3.64v7.09C140.04,159.43,139.44,159.99,138.71,159.99z"/>
		<path d="M65.67,159.99c-0.73,0-1.33-0.56-1.33-1.26v-3.31l-13.51-0.15l-0.21,3.45c0,0.7-0.6,1.26-1.33,1.26s-1.33-0.56-1.33-1.26v-9.47c0-0.7,0.6-1.26,1.33-1.26s1.33,0.56,1.33,1.26v3.33l13.5,0.17l0.22-3.5c0-0.7,0.6-1.26,1.33-1.26s1.33,0.56,1.33,1.26v9.47C67,159.43,66.4,159.99,65.67,159.99z"/>
		<path d="M30.71,159.99H16.97c-2.18,0-3.97-1.64-3.97-3.64v-4.71c0-2,1.78-3.64,3.97-3.64h13.74c0.73,0,1.33,0.56,1.33,1.26c0,0.71-0.6,1.26-1.33,1.26H16.99c-0.74,0-1.33,0.54-1.33,1.19v4.59c0,0.64,0.58,1.18,1.33,1.18h13.72c0.73,0,1.33,0.55,1.33,1.26C32.04,159.43,31.44,159.99,30.71,159.99z"/>
		<path d="M381.03,155.28h-9.21c-0.73,0-1.33-0.56-1.33-1.26c0-0.71,0.6-1.26,1.33-1.26h9.21c0.8,0,1.31-0.5,1.31-1.12c0-0.56-0.54-1.12-1.31-1.12h-11.1c-0.75,0-1.31,0.54-1.31,1.19v7.03c0,0.7-0.6,1.26-1.33,1.26c-0.73,0-1.33-0.56-1.33-1.26v-7.09c0-2,1.78-3.64,3.97-3.64h11.1c2.17,0,3.97,1.59,3.97,3.64C385,153.69,383.23,155.28,381.03,155.28z"/>
		<path d="M254.85,60.84c4.89,0,8.91,3.63,8.91,8.37c0,4.75-4.02,8.65-8.91,8.65h-64.56c-16.25,0-26.6-10.14-26.6-23.82c0-13.68,10.35-23.71,26.6-23.71h46.87c5.32,0,8.77-2.82,8.77-6.58c0-4.47-3.6-6.73-8.77-6.73h-74.19c-4.41,0-7.99,2.95-8.65,6.71v29.57c0,13.53-12.08,24.56-26.75,24.56h-15.42c-14.81,0-26.75-11.03-26.75-24.56V36.56c0-4.47-3.74-7.95-8.62-7.95c-4.89,0-8.63,3.49-8.63,7.95v16.75c0,13.53-12.08,24.56-26.74,24.56H26.74C11.93,77.87,0,66.84,0,53.31V8.51C0,3.77,4.03,0,8.91,0c4.89,0,9.06,3.77,9.06,8.51v44.38c0,4.33,3.73,7.95,8.77,7.95h14.52c5.03,0,9.06-3.63,9.06-7.95V36.56C50.32,22.88,61.82,12,76.78,12c14.66,0,26.45,11.03,26.45,24.56v16.33c0,4.33,4.03,7.95,9.06,7.95h15.28c4.89,0,8.77-3.63,8.77-7.95l0.02-28.33c0-13.54,12.07-24.56,26.6-24.56h74.19c16.1,0,26.6,9.94,26.6,23.76c0,12.7-10.62,23.61-26.6,23.61h-46.87c-5.17,0-8.77,2.58-8.77,6.76c0,4.32,4.03,6.71,8.77,6.71H254.85z"/>
		<path d="M389.08,77.87h-92.02c-14.67,0-26.6-11.03-26.6-24.56V24.56C270.47,11.02,282.4,0,297.07,0h92.02c4.89,0,8.92,3.77,8.92,8.51c0,4.75-4.03,8.52-8.92,8.52h-91.87c-5.03,0-8.92,3.63-8.92,7.95v27.91c0,4.33,3.88,7.95,8.92,7.95h91.87c4.89,0,8.92,3.77,8.92,8.51C398,74.1,393.97,77.87,389.08,77.87z"/>
		<path d="M97.53,148H86.4c-2.12,0-3.4,1.61-3.4,3.58v7.27c0,0.63,0.34,1.15,1,1.15c0.65,0,1-0.52,1-1.15V155h14v3.84c0,0.63,0.35,1.16,1,1.16c0.66,0,1-0.52,1-1.15v-7.27C101,149.61,99.65,148,97.53,148z M98.99,153H85v-1.35c0-0.73,0.6-1.65,1.4-1.65h11.13c0.8,0,1.47,0.87,1.47,1.61L98.99,153z"/>
	</g>
</svg>